<mxfile host="app.diagrams.net" agent="Mozilla/5.0 (Windows NT 10.0; Win64; x64) AppleWebKit/537.36 (KHTML, like Gecko) Chrome/129.0.0.0 Safari/537.36 Edg/129.0.0.0" version="24.7.16">
  <diagram name="第 1 页" id="CmhihAkPHXoBN1QAGS5e">
    <mxGraphModel dx="786" dy="463" grid="1" gridSize="10" guides="1" tooltips="1" connect="1" arrows="1" fold="1" page="1" pageScale="1" pageWidth="827" pageHeight="1169" math="0" shadow="0">
      <root>
        <mxCell id="0" />
        <mxCell id="1" parent="0" />
        <mxCell id="rZu9IjarSrVDgX6lhnSi-1" value="输入或登记销售协议" style="rounded=1;whiteSpace=wrap;html=1;absoluteArcSize=1;arcSize=14;strokeWidth=2;" vertex="1" parent="1">
          <mxGeometry x="30" y="170" width="160" height="50" as="geometry" />
        </mxCell>
        <mxCell id="rZu9IjarSrVDgX6lhnSi-25" style="edgeStyle=orthogonalEdgeStyle;rounded=0;orthogonalLoop=1;jettySize=auto;html=1;exitX=0.5;exitY=1;exitDx=0;exitDy=0;exitPerimeter=0;entryX=0.5;entryY=0;entryDx=0;entryDy=0;" edge="1" parent="1" source="rZu9IjarSrVDgX6lhnSi-2" target="rZu9IjarSrVDgX6lhnSi-23">
          <mxGeometry relative="1" as="geometry" />
        </mxCell>
        <mxCell id="rZu9IjarSrVDgX6lhnSi-2" value="总监" style="strokeWidth=2;html=1;shape=mxgraph.flowchart.decision;whiteSpace=wrap;" vertex="1" parent="1">
          <mxGeometry x="70" y="280" width="80" height="65" as="geometry" />
        </mxCell>
        <mxCell id="rZu9IjarSrVDgX6lhnSi-27" style="edgeStyle=orthogonalEdgeStyle;rounded=0;orthogonalLoop=1;jettySize=auto;html=1;exitX=0.5;exitY=1;exitDx=0;exitDy=0;exitPerimeter=0;entryX=0.5;entryY=0;entryDx=0;entryDy=0;" edge="1" parent="1" source="rZu9IjarSrVDgX6lhnSi-4" target="rZu9IjarSrVDgX6lhnSi-24">
          <mxGeometry relative="1" as="geometry" />
        </mxCell>
        <mxCell id="rZu9IjarSrVDgX6lhnSi-4" value="副总" style="strokeWidth=2;html=1;shape=mxgraph.flowchart.decision;whiteSpace=wrap;" vertex="1" parent="1">
          <mxGeometry x="335" y="280" width="80" height="65" as="geometry" />
        </mxCell>
        <mxCell id="rZu9IjarSrVDgX6lhnSi-22" style="edgeStyle=orthogonalEdgeStyle;rounded=0;orthogonalLoop=1;jettySize=auto;html=1;exitX=0.5;exitY=1;exitDx=0;exitDy=0;entryX=0.5;entryY=0;entryDx=0;entryDy=0;" edge="1" parent="1" source="rZu9IjarSrVDgX6lhnSi-7" target="rZu9IjarSrVDgX6lhnSi-32">
          <mxGeometry relative="1" as="geometry">
            <mxPoint x="280" y="570" as="targetPoint" />
          </mxGeometry>
        </mxCell>
        <mxCell id="rZu9IjarSrVDgX6lhnSi-7" value="财务部/ 合同章" style="rounded=1;whiteSpace=wrap;html=1;absoluteArcSize=1;arcSize=14;strokeWidth=2;" vertex="1" parent="1">
          <mxGeometry x="300" y="440" width="100" height="60" as="geometry" />
        </mxCell>
        <mxCell id="rZu9IjarSrVDgX6lhnSi-8" style="edgeStyle=orthogonalEdgeStyle;rounded=0;orthogonalLoop=1;jettySize=auto;html=1;exitX=0.5;exitY=1;exitDx=0;exitDy=0;entryX=0.5;entryY=0;entryDx=0;entryDy=0;entryPerimeter=0;" edge="1" parent="1" source="rZu9IjarSrVDgX6lhnSi-1" target="rZu9IjarSrVDgX6lhnSi-2">
          <mxGeometry relative="1" as="geometry" />
        </mxCell>
        <mxCell id="rZu9IjarSrVDgX6lhnSi-10" value="总经办/&amp;nbsp;&lt;span style=&quot;background-color: initial;&quot;&gt;公章&lt;/span&gt;&lt;span style=&quot;background-color: initial; white-space: pre;&quot;&gt;&#x9;&lt;/span&gt;" style="rounded=1;whiteSpace=wrap;html=1;absoluteArcSize=1;arcSize=14;strokeWidth=2;" vertex="1" parent="1">
          <mxGeometry x="50" y="440" width="120" height="60" as="geometry" />
        </mxCell>
        <mxCell id="rZu9IjarSrVDgX6lhnSi-15" style="edgeStyle=orthogonalEdgeStyle;rounded=0;orthogonalLoop=1;jettySize=auto;html=1;exitX=1;exitY=0.5;exitDx=0;exitDy=0;exitPerimeter=0;entryX=0;entryY=0.5;entryDx=0;entryDy=0;entryPerimeter=0;" edge="1" parent="1" source="rZu9IjarSrVDgX6lhnSi-2" target="rZu9IjarSrVDgX6lhnSi-4">
          <mxGeometry relative="1" as="geometry" />
        </mxCell>
        <mxCell id="rZu9IjarSrVDgX6lhnSi-21" style="edgeStyle=orthogonalEdgeStyle;rounded=0;orthogonalLoop=1;jettySize=auto;html=1;exitX=0.5;exitY=1;exitDx=0;exitDy=0;entryX=0.5;entryY=0;entryDx=0;entryDy=0;" edge="1" parent="1" source="rZu9IjarSrVDgX6lhnSi-10" target="rZu9IjarSrVDgX6lhnSi-32">
          <mxGeometry relative="1" as="geometry">
            <mxPoint x="234.03999999999996" y="573.3499999999999" as="targetPoint" />
          </mxGeometry>
        </mxCell>
        <mxCell id="rZu9IjarSrVDgX6lhnSi-26" style="edgeStyle=orthogonalEdgeStyle;rounded=0;orthogonalLoop=1;jettySize=auto;html=1;exitX=0.5;exitY=1;exitDx=0;exitDy=0;entryX=0.5;entryY=0;entryDx=0;entryDy=0;" edge="1" parent="1" source="rZu9IjarSrVDgX6lhnSi-23" target="rZu9IjarSrVDgX6lhnSi-10">
          <mxGeometry relative="1" as="geometry" />
        </mxCell>
        <mxCell id="rZu9IjarSrVDgX6lhnSi-29" style="edgeStyle=orthogonalEdgeStyle;rounded=0;orthogonalLoop=1;jettySize=auto;html=1;exitX=1;exitY=0.5;exitDx=0;exitDy=0;entryX=0.25;entryY=0;entryDx=0;entryDy=0;" edge="1" parent="1" source="rZu9IjarSrVDgX6lhnSi-23" target="rZu9IjarSrVDgX6lhnSi-7">
          <mxGeometry relative="1" as="geometry" />
        </mxCell>
        <mxCell id="rZu9IjarSrVDgX6lhnSi-23" value="" style="rhombus;whiteSpace=wrap;html=1;" vertex="1" parent="1">
          <mxGeometry x="92.5" y="370" width="35" height="30" as="geometry" />
        </mxCell>
        <mxCell id="rZu9IjarSrVDgX6lhnSi-28" style="edgeStyle=orthogonalEdgeStyle;rounded=0;orthogonalLoop=1;jettySize=auto;html=1;exitX=0.5;exitY=1;exitDx=0;exitDy=0;entryX=0.75;entryY=0;entryDx=0;entryDy=0;" edge="1" parent="1" source="rZu9IjarSrVDgX6lhnSi-24" target="rZu9IjarSrVDgX6lhnSi-7">
          <mxGeometry relative="1" as="geometry" />
        </mxCell>
        <mxCell id="rZu9IjarSrVDgX6lhnSi-31" style="edgeStyle=orthogonalEdgeStyle;rounded=0;orthogonalLoop=1;jettySize=auto;html=1;exitX=0;exitY=0.5;exitDx=0;exitDy=0;entryX=0.75;entryY=0;entryDx=0;entryDy=0;" edge="1" parent="1" source="rZu9IjarSrVDgX6lhnSi-24" target="rZu9IjarSrVDgX6lhnSi-10">
          <mxGeometry relative="1" as="geometry" />
        </mxCell>
        <mxCell id="rZu9IjarSrVDgX6lhnSi-24" value="" style="rhombus;whiteSpace=wrap;html=1;" vertex="1" parent="1">
          <mxGeometry x="357.5" y="390" width="35" height="30" as="geometry" />
        </mxCell>
        <mxCell id="rZu9IjarSrVDgX6lhnSi-37" style="edgeStyle=orthogonalEdgeStyle;rounded=0;orthogonalLoop=1;jettySize=auto;html=1;exitX=1;exitY=0.5;exitDx=0;exitDy=0;entryX=0.5;entryY=0;entryDx=0;entryDy=0;" edge="1" parent="1" source="rZu9IjarSrVDgX6lhnSi-32" target="rZu9IjarSrVDgX6lhnSi-34">
          <mxGeometry relative="1" as="geometry" />
        </mxCell>
        <mxCell id="rZu9IjarSrVDgX6lhnSi-32" value="发起人" style="rhombus;whiteSpace=wrap;html=1;" vertex="1" parent="1">
          <mxGeometry x="180" y="570" width="110" height="50" as="geometry" />
        </mxCell>
        <mxCell id="rZu9IjarSrVDgX6lhnSi-40" style="edgeStyle=orthogonalEdgeStyle;rounded=0;orthogonalLoop=1;jettySize=auto;html=1;exitX=1;exitY=0.5;exitDx=0;exitDy=0;" edge="1" parent="1" source="rZu9IjarSrVDgX6lhnSi-34" target="rZu9IjarSrVDgX6lhnSi-39">
          <mxGeometry relative="1" as="geometry" />
        </mxCell>
        <mxCell id="rZu9IjarSrVDgX6lhnSi-34" value="文员归档" style="rounded=1;whiteSpace=wrap;html=1;absoluteArcSize=1;arcSize=14;strokeWidth=2;" vertex="1" parent="1">
          <mxGeometry x="379" y="675" width="70" height="55" as="geometry" />
        </mxCell>
        <mxCell id="rZu9IjarSrVDgX6lhnSi-38" style="edgeStyle=orthogonalEdgeStyle;rounded=0;orthogonalLoop=1;jettySize=auto;html=1;exitX=1;exitY=0.5;exitDx=0;exitDy=0;exitPerimeter=0;" edge="1" parent="1" source="rZu9IjarSrVDgX6lhnSi-35" target="rZu9IjarSrVDgX6lhnSi-34">
          <mxGeometry relative="1" as="geometry" />
        </mxCell>
        <mxCell id="rZu9IjarSrVDgX6lhnSi-35" value="副总" style="strokeWidth=2;html=1;shape=mxgraph.flowchart.decision;whiteSpace=wrap;" vertex="1" parent="1">
          <mxGeometry x="195" y="670" width="80" height="65" as="geometry" />
        </mxCell>
        <mxCell id="rZu9IjarSrVDgX6lhnSi-36" style="edgeStyle=orthogonalEdgeStyle;rounded=0;orthogonalLoop=1;jettySize=auto;html=1;exitX=0.5;exitY=1;exitDx=0;exitDy=0;entryX=0.5;entryY=0;entryDx=0;entryDy=0;entryPerimeter=0;" edge="1" parent="1" source="rZu9IjarSrVDgX6lhnSi-32" target="rZu9IjarSrVDgX6lhnSi-35">
          <mxGeometry relative="1" as="geometry" />
        </mxCell>
        <mxCell id="rZu9IjarSrVDgX6lhnSi-39" value="" style="strokeWidth=2;html=1;shape=mxgraph.flowchart.terminator;whiteSpace=wrap;" vertex="1" parent="1">
          <mxGeometry x="480" y="679" width="80" height="47" as="geometry" />
        </mxCell>
        <mxCell id="rZu9IjarSrVDgX6lhnSi-41" value="收回客户盖章纸质件或电子件" style="text;html=1;align=center;verticalAlign=middle;whiteSpace=wrap;rounded=0;" vertex="1" parent="1">
          <mxGeometry x="305" y="560" width="195" height="30" as="geometry" />
        </mxCell>
        <mxCell id="rZu9IjarSrVDgX6lhnSi-42" value="未收回文件" style="text;html=1;align=center;verticalAlign=middle;whiteSpace=wrap;rounded=0;" vertex="1" parent="1">
          <mxGeometry x="219" y="705" width="195" height="30" as="geometry" />
        </mxCell>
      </root>
    </mxGraphModel>
  </diagram>
</mxfile>
